<svg aria-hidden="true" style="position: absolute; width: 0; height: 0; overflow: hidden;" version="1.1" xmlns="http://www.w3.org/2000/svg" xmlns:xlink="http://www.w3.org/1999/xlink">
<defs>
<!-- ===================== Header ================================= -->
<symbol id="icon-logo" viewBox="0 0 144 32">
<path fill="#0147ff" style="fill: var(--color1, #0147ff)" d="M13.926 0.626c0.767 0.333 1.222 1.131 1.118 1.96l-0.865 6.919h8.032c0.73 0 1.395 0.422 1.705 1.084s0.209 1.442-0.259 2.003l-11.294 13.553c-0.535 0.642-1.429 0.854-2.196 0.522s-1.222-1.131-1.118-1.96l0.865-6.919h-8.032c-0.73 0-1.395-0.422-1.705-1.084s-0.209-1.442 0.259-2.003l11.294-13.553c0.535-0.642 1.429-0.854 2.196-0.522zM5.901 14.024h6.146c0.54 0 1.054 0.232 1.411 0.637s0.524 0.943 0.457 1.479l-0.333 2.664 4.611-5.533h-6.146c-0.54 0-1.054-0.232-1.411-0.637s-0.524-0.943-0.457-1.479l0.333-2.664-4.611 5.533z"></path>
<path fill="#000" style="fill: var(--color2, #000)" d="M143.712 9.131v3.103h-8.118v-3.103h8.118zM137.462 5.205h4.104v14.985c0 0.441 0.043 0.779 0.132 1.015s0.221 0.402 0.397 0.5c0.186 0.088 0.431 0.132 0.735 0.132 0.206 0 0.397-0.010 0.574-0.029 0.176-0.029 0.309-0.059 0.397-0.088v3.221c-0.324 0.127-0.667 0.226-1.030 0.294-0.353 0.069-0.775 0.103-1.265 0.103-0.824 0-1.539-0.157-2.147-0.471-0.599-0.314-1.064-0.814-1.398-1.5-0.333-0.696-0.5-1.608-0.5-2.735v-15.427z"></path>
<path fill="#000" style="fill: var(--color2, #000)" d="M121.3 17.631v-1.074c0-1.245 0.148-2.348 0.441-3.309 0.304-0.961 0.735-1.765 1.294-2.412 0.559-0.657 1.23-1.152 2.015-1.485 0.793-0.343 1.681-0.515 2.662-0.515 0.99 0 1.878 0.172 2.662 0.515 0.794 0.333 1.47 0.828 2.029 1.485 0.568 0.647 1.005 1.451 1.309 2.412s0.456 2.064 0.456 3.309v1.074c0 1.235-0.152 2.333-0.456 3.294s-0.741 1.77-1.309 2.426c-0.559 0.657-1.23 1.152-2.014 1.485s-1.667 0.5-2.648 0.5-1.867-0.167-2.662-0.5c-0.784-0.333-1.461-0.828-2.029-1.485s-1.005-1.466-1.309-2.426c-0.294-0.961-0.441-2.059-0.441-3.294zM125.417 16.558v1.074c0 0.735 0.049 1.373 0.148 1.912 0.107 0.539 0.26 0.985 0.456 1.338 0.206 0.353 0.451 0.613 0.735 0.779s0.613 0.25 0.985 0.25c0.373 0 0.706-0.083 1-0.25s0.534-0.426 0.72-0.779c0.197-0.353 0.339-0.799 0.426-1.338 0.099-0.539 0.148-1.176 0.148-1.912v-1.074c0-0.716-0.055-1.343-0.162-1.882-0.108-0.549-0.26-0.995-0.456-1.338-0.196-0.353-0.44-0.618-0.735-0.794-0.284-0.186-0.608-0.279-0.97-0.279s-0.686 0.093-0.97 0.279c-0.275 0.176-0.515 0.441-0.721 0.794-0.196 0.343-0.348 0.789-0.456 1.338-0.099 0.539-0.148 1.167-0.148 1.882z"></path>
<path fill="#000" style="fill: var(--color2, #000)" d="M110.977 12.19v18.971h-4.104v-22.029h3.794l0.31 3.059zM119.241 16.543v1.059c0 1.245-0.108 2.348-0.324 3.309-0.216 0.951-0.539 1.76-0.97 2.427-0.422 0.657-0.952 1.157-1.589 1.5-0.637 0.333-1.382 0.5-2.235 0.5-0.793 0-1.48-0.186-2.058-0.559-0.568-0.382-1.049-0.907-1.441-1.574s-0.706-1.446-0.941-2.338c-0.235-0.892-0.417-1.848-0.545-2.868v-1.647c0.118-1.088 0.29-2.088 0.515-3 0.226-0.922 0.535-1.721 0.927-2.397 0.402-0.676 0.887-1.196 1.456-1.559 0.578-0.373 1.264-0.559 2.058-0.559 0.863 0 1.613 0.157 2.25 0.471 0.647 0.314 1.181 0.789 1.603 1.426 0.431 0.627 0.755 1.427 0.97 2.397s0.324 2.108 0.324 3.412zM115.124 17.602v-1.059c0-0.765-0.044-1.417-0.133-1.956-0.078-0.539-0.206-0.98-0.382-1.324s-0.407-0.593-0.691-0.75c-0.284-0.157-0.632-0.235-1.045-0.235-0.402 0-0.755 0.078-1.059 0.235-0.294 0.157-0.534 0.387-0.72 0.691-0.186 0.294-0.328 0.657-0.427 1.088-0.098 0.422-0.152 0.902-0.161 1.441v2.882c0.019 0.637 0.103 1.201 0.249 1.691 0.157 0.49 0.408 0.882 0.75 1.176 0.344 0.284 0.808 0.426 1.397 0.426 0.422 0 0.77-0.088 1.045-0.265 0.284-0.176 0.515-0.441 0.691-0.794s0.299-0.799 0.368-1.338c0.078-0.539 0.118-1.176 0.118-1.912z"></path>
<path fill="#000" style="fill: var(--color2, #000)" d="M99.859 19.411c0-0.382-0.034-0.73-0.103-1.044s-0.216-0.603-0.441-0.868c-0.216-0.265-0.535-0.529-0.956-0.794-0.411-0.265-0.951-0.539-1.617-0.824-0.794-0.333-1.564-0.686-2.31-1.059-0.745-0.382-1.416-0.824-2.014-1.324s-1.073-1.088-1.426-1.765c-0.343-0.686-0.515-1.49-0.515-2.412 0-0.902 0.162-1.721 0.485-2.456 0.333-0.735 0.804-1.363 1.412-1.882 0.608-0.529 1.319-0.936 2.133-1.221 0.824-0.284 1.74-0.426 2.749-0.426 1.373 0 2.559 0.284 3.56 0.853 1.010 0.569 1.789 1.348 2.338 2.338 0.559 0.99 0.839 2.127 0.839 3.412h-4.295c0-0.608-0.088-1.142-0.264-1.603-0.167-0.471-0.437-0.838-0.808-1.103s-0.854-0.397-1.442-0.397c-0.549 0-1.004 0.113-1.368 0.338-0.353 0.216-0.617 0.515-0.794 0.897-0.167 0.373-0.249 0.794-0.249 1.265 0 0.353 0.083 0.672 0.249 0.956 0.177 0.274 0.417 0.525 0.721 0.75 0.304 0.216 0.662 0.426 1.074 0.632 0.422 0.206 0.882 0.407 1.382 0.603 0.971 0.382 1.829 0.804 2.574 1.265 0.745 0.451 1.368 0.961 1.867 1.529 0.5 0.559 0.878 1.191 1.132 1.897s0.383 1.51 0.383 2.412c0 0.892-0.157 1.706-0.471 2.441-0.304 0.725-0.75 1.353-1.338 1.882-0.588 0.52-1.299 0.922-2.133 1.206-0.824 0.284-1.745 0.427-2.764 0.427-0.99 0-1.927-0.137-2.809-0.412-0.882-0.284-1.662-0.711-2.338-1.279-0.667-0.578-1.191-1.309-1.573-2.191-0.382-0.892-0.574-1.946-0.574-3.162h4.309c0 0.647 0.063 1.201 0.191 1.662 0.127 0.451 0.324 0.814 0.588 1.088 0.264 0.265 0.588 0.466 0.97 0.603 0.392 0.127 0.839 0.191 1.338 0.191 0.568 0 1.019-0.108 1.352-0.323 0.344-0.216 0.588-0.505 0.736-0.868s0.22-0.774 0.22-1.235z"></path>
<path fill="#0147ff" style="fill: var(--color1, #0147ff)" d="M83.977 20.749c0-0.275-0.093-0.52-0.279-0.735s-0.48-0.436-0.882-0.662c-0.402-0.235-0.936-0.495-1.603-0.779-0.725-0.294-1.368-0.598-1.927-0.912s-1.034-0.662-1.426-1.044c-0.382-0.382-0.672-0.819-0.868-1.309s-0.294-1.049-0.294-1.676c0-0.677 0.123-1.299 0.368-1.868 0.255-0.578 0.618-1.083 1.088-1.515 0.471-0.441 1.044-0.784 1.721-1.029 0.686-0.255 1.456-0.382 2.309-0.382 1.196 0 2.221 0.211 3.074 0.632 0.863 0.412 1.525 0.99 1.985 1.735s0.691 1.613 0.691 2.603h-4.118c0-0.353-0.054-0.667-0.162-0.941-0.108-0.284-0.284-0.505-0.529-0.662-0.235-0.157-0.554-0.235-0.956-0.235-0.294 0-0.559 0.064-0.794 0.191-0.225 0.127-0.407 0.299-0.544 0.515-0.127 0.206-0.191 0.451-0.191 0.735 0 0.216 0.044 0.407 0.132 0.574 0.098 0.167 0.25 0.328 0.456 0.485s0.48 0.323 0.824 0.5c0.353 0.167 0.784 0.353 1.294 0.559 1.059 0.392 1.927 0.814 2.603 1.265 0.686 0.451 1.196 0.98 1.529 1.588 0.333 0.598 0.5 1.338 0.5 2.221 0 0.706-0.137 1.348-0.412 1.927-0.265 0.578-0.652 1.078-1.162 1.5s-1.123 0.745-1.838 0.971c-0.706 0.226-1.495 0.338-2.368 0.338-1.284 0-2.368-0.255-3.25-0.765s-1.549-1.162-2-1.956c-0.451-0.804-0.676-1.637-0.676-2.5h3.912c0.020 0.529 0.118 0.946 0.294 1.25 0.186 0.294 0.436 0.5 0.75 0.618s0.662 0.176 1.044 0.176c0.382 0 0.696-0.049 0.941-0.147 0.255-0.108 0.446-0.27 0.574-0.485 0.127-0.226 0.191-0.485 0.191-0.779z"></path>
<path fill="#0147ff" style="fill: var(--color1, #0147ff)" d="M71.065 12.675v12.368h-4.118v-15.912h3.882l0.235 3.544zM74.815 9.014l-0.059 4.103c-0.186-0.039-0.412-0.069-0.676-0.088-0.255-0.020-0.48-0.029-0.677-0.029-0.461 0-0.853 0.073-1.176 0.221-0.323 0.137-0.593 0.348-0.809 0.632-0.206 0.275-0.363 0.618-0.471 1.029s-0.171 0.877-0.191 1.397l-0.779-0.294c0-1.039 0.078-1.99 0.235-2.853 0.167-0.873 0.412-1.627 0.735-2.265 0.324-0.647 0.711-1.147 1.162-1.5 0.461-0.353 0.98-0.529 1.559-0.529 0.196 0 0.402 0.020 0.618 0.059 0.225 0.029 0.402 0.069 0.529 0.118z"></path>
<path fill="#0147ff" style="fill: var(--color1, #0147ff)" d="M59.756 21.381v-7.353c0-0.48-0.059-0.863-0.176-1.147-0.108-0.284-0.274-0.49-0.5-0.618-0.216-0.137-0.48-0.206-0.794-0.206-0.353 0-0.647 0.073-0.882 0.221s-0.412 0.358-0.529 0.632c-0.108 0.275-0.162 0.603-0.162 0.985h-4.132c0-0.686 0.132-1.333 0.397-1.941 0.265-0.618 0.652-1.157 1.162-1.618 0.52-0.471 1.137-0.838 1.853-1.103s1.52-0.397 2.412-0.397c1.059 0 2 0.181 2.824 0.544 0.824 0.353 1.475 0.917 1.956 1.691s0.721 1.779 0.721 3.015v7.088c0 0.892 0.044 1.618 0.132 2.176 0.098 0.559 0.24 1.039 0.426 1.441v0.25h-4.147c-0.186-0.441-0.328-0.99-0.427-1.647-0.088-0.667-0.132-1.338-0.132-2.015zM60.256 15.322l0.015 2.471h-1.515c-0.392 0-0.735 0.064-1.029 0.191-0.284 0.127-0.525 0.309-0.721 0.544-0.196 0.226-0.343 0.49-0.441 0.794-0.088 0.304-0.132 0.627-0.132 0.971 0 0.382 0.054 0.706 0.162 0.971s0.27 0.466 0.485 0.603c0.216 0.137 0.471 0.206 0.765 0.206 0.451 0 0.843-0.093 1.176-0.279s0.578-0.412 0.735-0.676c0.167-0.265 0.221-0.51 0.162-0.735l0.941 1.603c-0.118 0.363-0.279 0.74-0.485 1.132-0.196 0.392-0.446 0.755-0.75 1.088s-0.681 0.608-1.132 0.824c-0.441 0.206-0.966 0.309-1.574 0.309-0.853 0-1.632-0.196-2.338-0.588s-1.265-0.941-1.676-1.647c-0.402-0.706-0.603-1.544-0.603-2.515 0-0.804 0.128-1.529 0.382-2.176 0.265-0.657 0.657-1.211 1.176-1.662 0.52-0.461 1.176-0.814 1.971-1.059s1.726-0.368 2.794-0.368h1.632z"></path>
<path fill="#0147ff" style="fill: var(--color1, #0147ff)" d="M45.977 17.911h4.279c-0.059 1.608-0.382 2.966-0.971 4.074-0.588 1.098-1.426 1.931-2.515 2.5-1.078 0.569-2.382 0.853-3.912 0.853-1.186 0-2.24-0.196-3.162-0.588-0.922-0.402-1.706-0.99-2.353-1.765s-1.137-1.73-1.471-2.868c-0.323-1.147-0.485-2.466-0.485-3.956v-3.632c0-1.49 0.172-2.809 0.515-3.956 0.353-1.147 0.853-2.108 1.5-2.882 0.657-0.784 1.446-1.373 2.368-1.765 0.931-0.402 1.98-0.603 3.147-0.603 1.559 0 2.863 0.294 3.912 0.882s1.858 1.446 2.427 2.574c0.578 1.118 0.926 2.485 1.044 4.103h-4.294c-0.029-1.020-0.147-1.819-0.353-2.397-0.196-0.588-0.51-1-0.941-1.235-0.431-0.245-1.029-0.368-1.794-0.368-0.569 0-1.059 0.103-1.471 0.309-0.412 0.196-0.75 0.515-1.015 0.956s-0.461 1.020-0.588 1.735c-0.118 0.716-0.176 1.588-0.176 2.618v3.662c0 1.010 0.054 1.872 0.162 2.588 0.108 0.706 0.279 1.284 0.515 1.735s0.554 0.779 0.956 0.985c0.412 0.206 0.931 0.309 1.559 0.309 0.725 0 1.309-0.108 1.75-0.323 0.451-0.216 0.784-0.603 1-1.162s0.338-1.353 0.368-2.382z"></path>
</symbol>
<!-- ========================= Info ====================== -->
<symbol id="icon-row" viewBox="0 0 28 32">
<path fill="#fff" style="fill: var(--color1, #fff)" d="M0 18.015l2.303-2.333 9.606 9.606v-24.879h3.333v24.879l9.576-9.606 2.333 2.333-13.576 13.576-13.576-13.576z"></path>
</symbol>
</defs>
</svg>
